<svg width="319" height="124" viewBox="0 0 319 124" fill="none" xmlns="http://www.w3.org/2000/svg">
<path fill-rule="evenodd" clip-rule="evenodd" d="M319 38.4C319 24.9587 319 18.2381 316.384 13.1042C314.083 8.58834 310.412 4.9168 305.896 2.61584C300.762 0 294.041 0 280.6 0H38.4C24.9587 0 18.2381 0 13.1042 2.61584C8.58834 4.9168 4.9168 8.58834 2.61584 13.1042C0 18.2381 0 24.9587 0 38.4V85.6C0 99.0413 0 105.762 2.61584 110.896C4.9168 115.412 8.58834 119.083 13.1042 121.384C18.2381 124 24.9587 124 38.4 124H244.96C250.547 124 253.34 124 256.035 123.503C258.427 123.063 260.757 122.333 262.972 121.33C265.469 120.2 267.763 118.605 272.351 115.417L302.513 94.4569C308.547 90.2638 311.564 88.1673 313.745 85.4392C315.677 83.0236 317.123 80.2574 318.004 77.293C319 73.945 319 70.2711 319 62.9233V38.4Z" fill="white"/>
</svg>
